<svg id="Слой_1" data-name="Слой 1" xmlns="http://www.w3.org/2000/svg" viewBox="0 0 127.33 74.57"><defs><style>.cls-1{fill:#fff;}</style></defs><title>logo</title><path class="cls-1" d="M26.39,14c9.4,1.35,15.25,7.26,15.25,16.47V52.72H31.05v-4.4c-2.77,3.34-6.82,5-11.94,5C8.31,53.29,0,45.62,0,33.61S8.31,13.93,19.11,13.93c0,0,2.37,0,4.5,0A25.58,25.58,0,0,1,26.39,14Zm4.38,19.65C30.77,27,26.5,23,21,23s-9.8,4-9.8,10.59S15.49,44.2,21,44.2a9,9,0,0,0,7.65-3.68l5.84,2.41-2-3.06a11.22,11.22,0,0,1-1.76-6.23Z"/><path class="cls-1" d="M63.2,53.29c-6.46,0-13-1.78-16.55-4.12l3.69-8a26.19,26.19,0,0,0,13.29,3.7c5.12,0,7-1.36,7-3.48,0-6.26-23.09.14-23.09-15.14,0-7.25,6.54-12.36,17.7-12.36,5.25,0,11.08,1.2,14.7,3.33l-3.69,7.89a22,22,0,0,0-11-2.84c-5,0-7.11,1.56-7.11,3.55,0,6.54,23.09.22,23.09,15.28C81.25,48.25,74.64,53.29,63.2,53.29Z"/><path class="cls-1" d="M102.4,38.57,97.91,43v9.73H86.83V0H97.91V30.33l15.73-15.39a1.63,1.63,0,0,1,1.13-.45h12.56l-16.76,17,16.36,21.18H114.3a1.69,1.69,0,0,1-1.3-.62Z"/><path class="cls-1" d="M6.57,65.85a5,5,0,0,1,5.25-5.06,4.43,4.43,0,0,1,4,2.12l-1.37.88a3.08,3.08,0,0,0-2.7-1.42,3.5,3.5,0,0,0,0,7,3.1,3.1,0,0,0,2.7-1.42l1.37.86a4.47,4.47,0,0,1-4,2.14A5,5,0,0,1,6.57,65.85Z"/><path class="cls-1" d="M18.81,65.85A4.94,4.94,0,0,1,24,60.79a5.08,5.08,0,1,1,0,10.15A5,5,0,0,1,18.81,65.85Zm8.51,0a3.35,3.35,0,1,0-6.69,0,3.35,3.35,0,1,0,6.69,0Z"/><path class="cls-1" d="M42.75,65.1v5.72H41V65.31c0-2-1-2.91-2.68-2.91a3,3,0,0,0-3.15,3.3v5.12h-1.8V60.88H35v1.5a4.27,4.27,0,0,1,3.58-1.59C41,60.79,42.75,62.18,42.75,65.1Z"/><path class="cls-1" d="M46.51,69.77l.75-1.42a6.42,6.42,0,0,0,3.49,1c1.67,0,2.36-.51,2.36-1.35,0-2.23-6.28-.3-6.28-4.26,0-1.78,1.59-3,4.14-3a7.24,7.24,0,0,1,3.62.9l-.77,1.42A5.17,5.17,0,0,0,51,62.33c-1.58,0-2.35.58-2.35,1.37,0,2.34,6.3.43,6.3,4.29,0,1.8-1.65,3-4.29,3A7.17,7.17,0,0,1,46.51,69.77Z"/><path class="cls-1" d="M68.11,60.88v9.94H66.4v-1.5A4,4,0,0,1,63,70.94c-2.57,0-4.28-1.41-4.28-4.34V60.88h1.8V66.4c0,1.95,1,2.92,2.68,2.92,1.88,0,3.08-1.16,3.08-3.3V60.88Z"/><path class="cls-1" d="M73.22,56.91H75V70.82h-1.8Z"/><path class="cls-1" d="M86,70.24a3.38,3.38,0,0,1-2.17.7,2.85,2.85,0,0,1-3.16-3.12V62.37H79V60.88h1.68V58.71h1.8v2.17H85.3v1.49H82.44v5.38A1.47,1.47,0,0,0,84,69.42,2.28,2.28,0,0,0,85.41,69Z"/><path class="cls-1" d="M89.51,57.81a1.18,1.18,0,0,1,1.22-1.18A1.17,1.17,0,0,1,92,57.77,1.18,1.18,0,0,1,90.73,59,1.16,1.16,0,0,1,89.51,57.81Zm.32,3.07h1.8v9.94h-1.8Z"/><path class="cls-1" d="M106.18,65.1v5.72h-1.8V65.31c0-2-1-2.91-2.68-2.91a3,3,0,0,0-3.15,3.3v5.12h-1.8V60.88h1.72v1.5a4.27,4.27,0,0,1,3.58-1.59C104.47,60.79,106.18,62.18,106.18,65.1Z"/><path class="cls-1" d="M120.76,60.88v8.59c0,3.51-1.78,5.1-5.16,5.1a7.32,7.32,0,0,1-4.74-1.48l.86-1.39a6.06,6.06,0,0,0,3.83,1.3c2.34,0,3.41-1.09,3.41-3.34v-.79a4.55,4.55,0,0,1-3.58,1.54,4.82,4.82,0,1,1,0-9.62,4.51,4.51,0,0,1,3.67,1.63V60.88ZM119,65.59a3.43,3.43,0,0,0-6.85,0,3.43,3.43,0,0,0,6.85,0Z"/></svg>